<mxfile host="app.diagrams.net" agent="Mozilla/5.0 (Macintosh; Intel Mac OS X 10_15_7) AppleWebKit/605.1.15 (KHTML, like Gecko) Version/18.4 Safari/605.1.15" version="27.0.6">
  <diagram name="Page-1" id="c5PsEikkjK2L_pIjswLm">
    <mxGraphModel dx="1234" dy="769" grid="1" gridSize="10" guides="1" tooltips="1" connect="1" arrows="1" fold="1" page="1" pageScale="1" pageWidth="827" pageHeight="1169" math="0" shadow="0">
      <root>
        <mxCell id="0" />
        <mxCell id="1" parent="0" />
        <mxCell id="xs-Oy0KHnUgplS3mtACo-1" value="" style="endArrow=none;html=1;rounded=0;" edge="1" parent="1">
          <mxGeometry width="50" height="50" relative="1" as="geometry">
            <mxPoint x="112" y="240" as="sourcePoint" />
            <mxPoint x="172" y="130" as="targetPoint" />
          </mxGeometry>
        </mxCell>
        <mxCell id="xs-Oy0KHnUgplS3mtACo-2" value="" style="endArrow=none;html=1;rounded=0;" edge="1" parent="1">
          <mxGeometry width="50" height="50" relative="1" as="geometry">
            <mxPoint x="232" y="240" as="sourcePoint" />
            <mxPoint x="172" y="130" as="targetPoint" />
          </mxGeometry>
        </mxCell>
        <mxCell id="xs-Oy0KHnUgplS3mtACo-3" value="DB9&lt;div&gt;Розетка&lt;/div&gt;&lt;div&gt;Металл&lt;/div&gt;" style="text;html=1;align=center;verticalAlign=middle;whiteSpace=wrap;rounded=0;" vertex="1" parent="1">
          <mxGeometry x="212" y="250" width="60" height="30" as="geometry" />
        </mxCell>
        <mxCell id="xs-Oy0KHnUgplS3mtACo-4" value="DB9&lt;div&gt;Розетка&lt;/div&gt;&lt;div&gt;Металл&lt;/div&gt;" style="text;html=1;align=center;verticalAlign=middle;whiteSpace=wrap;rounded=0;" vertex="1" parent="1">
          <mxGeometry x="82" y="250" width="60" height="30" as="geometry" />
        </mxCell>
        <mxCell id="xs-Oy0KHnUgplS3mtACo-5" value="Под клеммник" style="text;html=1;align=center;verticalAlign=middle;whiteSpace=wrap;rounded=0;" vertex="1" parent="1">
          <mxGeometry x="142" y="90" width="60" height="30" as="geometry" />
        </mxCell>
        <mxCell id="xs-Oy0KHnUgplS3mtACo-6" value="2м" style="text;html=1;align=center;verticalAlign=middle;whiteSpace=wrap;rounded=0;" vertex="1" parent="1">
          <mxGeometry x="192" y="180" width="60" height="30" as="geometry" />
        </mxCell>
        <mxCell id="xs-Oy0KHnUgplS3mtACo-9" value="2м" style="text;html=1;align=center;verticalAlign=middle;whiteSpace=wrap;rounded=0;" vertex="1" parent="1">
          <mxGeometry x="92" y="180" width="60" height="30" as="geometry" />
        </mxCell>
        <mxCell id="xs-Oy0KHnUgplS3mtACo-10" value="" style="shape=curlyBracket;whiteSpace=wrap;html=1;rounded=1;flipH=1;labelPosition=right;verticalLabelPosition=middle;align=left;verticalAlign=middle;" vertex="1" parent="1">
          <mxGeometry x="292" y="80" width="20" height="210" as="geometry" />
        </mxCell>
        <mxCell id="xs-Oy0KHnUgplS3mtACo-11" value="Экранированный кабель&lt;div&gt;5 шт&lt;/div&gt;" style="text;html=1;align=center;verticalAlign=middle;whiteSpace=wrap;rounded=0;" vertex="1" parent="1">
          <mxGeometry x="326" y="170" width="60" height="30" as="geometry" />
        </mxCell>
        <mxCell id="xs-Oy0KHnUgplS3mtACo-12" value="" style="endArrow=none;html=1;rounded=0;" edge="1" parent="1">
          <mxGeometry width="50" height="50" relative="1" as="geometry">
            <mxPoint x="112" y="570" as="sourcePoint" />
            <mxPoint x="172" y="460" as="targetPoint" />
          </mxGeometry>
        </mxCell>
        <mxCell id="xs-Oy0KHnUgplS3mtACo-13" value="" style="endArrow=none;html=1;rounded=0;" edge="1" parent="1">
          <mxGeometry width="50" height="50" relative="1" as="geometry">
            <mxPoint x="232" y="570" as="sourcePoint" />
            <mxPoint x="172" y="460" as="targetPoint" />
          </mxGeometry>
        </mxCell>
        <mxCell id="xs-Oy0KHnUgplS3mtACo-14" value="DB9&lt;div&gt;Розетка&lt;/div&gt;&lt;div&gt;Металл&lt;/div&gt;" style="text;html=1;align=center;verticalAlign=middle;whiteSpace=wrap;rounded=0;" vertex="1" parent="1">
          <mxGeometry x="212" y="580" width="60" height="30" as="geometry" />
        </mxCell>
        <mxCell id="xs-Oy0KHnUgplS3mtACo-15" value="DB9&lt;div&gt;Розетка&lt;/div&gt;&lt;div&gt;Металл&lt;/div&gt;" style="text;html=1;align=center;verticalAlign=middle;whiteSpace=wrap;rounded=0;" vertex="1" parent="1">
          <mxGeometry x="82" y="580" width="60" height="30" as="geometry" />
        </mxCell>
        <mxCell id="xs-Oy0KHnUgplS3mtACo-17" value="2м" style="text;html=1;align=center;verticalAlign=middle;whiteSpace=wrap;rounded=0;" vertex="1" parent="1">
          <mxGeometry x="192" y="510" width="60" height="30" as="geometry" />
        </mxCell>
        <mxCell id="xs-Oy0KHnUgplS3mtACo-18" value="2м" style="text;html=1;align=center;verticalAlign=middle;whiteSpace=wrap;rounded=0;" vertex="1" parent="1">
          <mxGeometry x="92" y="510" width="60" height="30" as="geometry" />
        </mxCell>
        <mxCell id="xs-Oy0KHnUgplS3mtACo-19" value="" style="shape=curlyBracket;whiteSpace=wrap;html=1;rounded=1;flipH=1;labelPosition=right;verticalLabelPosition=middle;align=left;verticalAlign=middle;" vertex="1" parent="1">
          <mxGeometry x="292" y="410" width="20" height="210" as="geometry" />
        </mxCell>
        <mxCell id="xs-Oy0KHnUgplS3mtACo-20" value="Экранированный кабель&lt;div&gt;5 шт&lt;/div&gt;" style="text;html=1;align=center;verticalAlign=middle;whiteSpace=wrap;rounded=0;" vertex="1" parent="1">
          <mxGeometry x="326" y="500" width="60" height="30" as="geometry" />
        </mxCell>
        <mxCell id="xs-Oy0KHnUgplS3mtACo-21" value="DB9&lt;div&gt;Розетка&lt;/div&gt;&lt;div&gt;Металл&lt;/div&gt;" style="text;html=1;align=center;verticalAlign=middle;whiteSpace=wrap;rounded=0;" vertex="1" parent="1">
          <mxGeometry x="144" y="410" width="60" height="30" as="geometry" />
        </mxCell>
        <mxCell id="xs-Oy0KHnUgplS3mtACo-22" value="" style="endArrow=none;html=1;rounded=0;" edge="1" parent="1">
          <mxGeometry width="50" height="50" relative="1" as="geometry">
            <mxPoint x="492" y="160" as="sourcePoint" />
            <mxPoint x="712" y="160" as="targetPoint" />
          </mxGeometry>
        </mxCell>
        <mxCell id="xs-Oy0KHnUgplS3mtACo-25" value="DB15&lt;div&gt;Экран нагрузки&lt;/div&gt;" style="text;html=1;align=center;verticalAlign=middle;whiteSpace=wrap;rounded=0;" vertex="1" parent="1">
          <mxGeometry x="712" y="145" width="60" height="30" as="geometry" />
        </mxCell>
        <mxCell id="xs-Oy0KHnUgplS3mtACo-26" value="DB15&lt;div&gt;Экран нагрузки&lt;/div&gt;" style="text;html=1;align=center;verticalAlign=middle;whiteSpace=wrap;rounded=0;" vertex="1" parent="1">
          <mxGeometry x="432" y="145" width="60" height="30" as="geometry" />
        </mxCell>
        <mxCell id="xs-Oy0KHnUgplS3mtACo-27" value="1м" style="text;html=1;align=center;verticalAlign=middle;whiteSpace=wrap;rounded=0;" vertex="1" parent="1">
          <mxGeometry x="572" y="140" width="60" height="30" as="geometry" />
        </mxCell>
        <mxCell id="xs-Oy0KHnUgplS3mtACo-28" value="" style="shape=curlyBracket;whiteSpace=wrap;html=1;rounded=1;flipH=1;labelPosition=right;verticalLabelPosition=middle;align=left;verticalAlign=middle;rotation=90;" vertex="1" parent="1">
          <mxGeometry x="592" y="40" width="20" height="330" as="geometry" />
        </mxCell>
        <mxCell id="xs-Oy0KHnUgplS3mtACo-29" value="Экранированный кабель&lt;div&gt;3 шт&lt;/div&gt;" style="text;html=1;align=center;verticalAlign=middle;whiteSpace=wrap;rounded=0;" vertex="1" parent="1">
          <mxGeometry x="542" y="230" width="120" height="30" as="geometry" />
        </mxCell>
        <mxCell id="xs-Oy0KHnUgplS3mtACo-30" value="" style="endArrow=none;html=1;rounded=0;" edge="1" parent="1">
          <mxGeometry width="50" height="50" relative="1" as="geometry">
            <mxPoint x="504" y="480" as="sourcePoint" />
            <mxPoint x="724" y="480" as="targetPoint" />
          </mxGeometry>
        </mxCell>
        <mxCell id="xs-Oy0KHnUgplS3mtACo-31" value="DB9&lt;div&gt;розетка&lt;/div&gt;&lt;div&gt;металл&lt;/div&gt;" style="text;html=1;align=center;verticalAlign=middle;whiteSpace=wrap;rounded=0;" vertex="1" parent="1">
          <mxGeometry x="724" y="465" width="60" height="30" as="geometry" />
        </mxCell>
        <mxCell id="xs-Oy0KHnUgplS3mtACo-32" value="под клеммник" style="text;html=1;align=center;verticalAlign=middle;whiteSpace=wrap;rounded=0;" vertex="1" parent="1">
          <mxGeometry x="444" y="465" width="60" height="30" as="geometry" />
        </mxCell>
        <mxCell id="xs-Oy0KHnUgplS3mtACo-33" value="1.5м" style="text;html=1;align=center;verticalAlign=middle;whiteSpace=wrap;rounded=0;" vertex="1" parent="1">
          <mxGeometry x="584" y="460" width="60" height="30" as="geometry" />
        </mxCell>
        <mxCell id="xs-Oy0KHnUgplS3mtACo-34" value="" style="shape=curlyBracket;whiteSpace=wrap;html=1;rounded=1;flipH=1;labelPosition=right;verticalLabelPosition=middle;align=left;verticalAlign=middle;rotation=90;" vertex="1" parent="1">
          <mxGeometry x="604" y="360" width="20" height="330" as="geometry" />
        </mxCell>
        <mxCell id="xs-Oy0KHnUgplS3mtACo-35" value="Экранированный кабель&lt;div&gt;6 шт&lt;/div&gt;" style="text;html=1;align=center;verticalAlign=middle;whiteSpace=wrap;rounded=0;" vertex="1" parent="1">
          <mxGeometry x="554" y="550" width="120" height="30" as="geometry" />
        </mxCell>
        <mxCell id="xs-Oy0KHnUgplS3mtACo-36" value="" style="endArrow=none;html=1;rounded=0;" edge="1" parent="1">
          <mxGeometry width="50" height="50" relative="1" as="geometry">
            <mxPoint x="420" y="700" as="sourcePoint" />
            <mxPoint x="420" as="targetPoint" />
          </mxGeometry>
        </mxCell>
        <mxCell id="xs-Oy0KHnUgplS3mtACo-37" value="" style="endArrow=none;html=1;rounded=0;" edge="1" parent="1">
          <mxGeometry width="50" height="50" relative="1" as="geometry">
            <mxPoint y="330" as="sourcePoint" />
            <mxPoint x="820" y="330" as="targetPoint" />
          </mxGeometry>
        </mxCell>
        <mxCell id="xs-Oy0KHnUgplS3mtACo-38" value="IXXAT&amp;nbsp;(CAN)&amp;nbsp;- ШЛЮЗ (CAN)" style="text;html=1;align=center;verticalAlign=middle;whiteSpace=wrap;rounded=0;fontStyle=1;fontSize=16;" vertex="1" parent="1">
          <mxGeometry x="92" y="10" width="248" height="30" as="geometry" />
        </mxCell>
        <mxCell id="xs-Oy0KHnUgplS3mtACo-39" value="CAN PL -- CAN PL" style="text;html=1;align=center;verticalAlign=middle;whiteSpace=wrap;rounded=0;fontStyle=1;fontSize=16;" vertex="1" parent="1">
          <mxGeometry x="554" y="10" width="146" height="30" as="geometry" />
        </mxCell>
        <mxCell id="xs-Oy0KHnUgplS3mtACo-40" value="ОПТО-РАЗВЯЗКА&amp;nbsp;(CAN)&amp;nbsp;- ШЛЮЗ (CAN)" style="text;html=1;align=center;verticalAlign=middle;whiteSpace=wrap;rounded=0;fontStyle=1;fontSize=16;" vertex="1" parent="1">
          <mxGeometry x="30" y="350" width="360" height="30" as="geometry" />
        </mxCell>
        <mxCell id="xs-Oy0KHnUgplS3mtACo-41" value="IXXAT (CAN) - ОПТО-РАЗВЯЗКА (CAN)" style="text;html=1;align=center;verticalAlign=middle;whiteSpace=wrap;rounded=0;fontStyle=1;fontSize=16;" vertex="1" parent="1">
          <mxGeometry x="439" y="350" width="350" height="30" as="geometry" />
        </mxCell>
      </root>
    </mxGraphModel>
  </diagram>
</mxfile>
